<svg xmlns="http://www.w3.org/2000/svg" viewBox="0 0 402 402" clip-path="url(#clip)">
  <path d="M257,16L339,423L133,434Z" fill="rgb(179, 140, 122)" fill-opacity="0.83" />
  <path d="M104,79L182,196L137,353Z" fill="rgb(208, 176, 160)" fill-opacity="0.74" />
  <path d="M329,178L96,142L217,81Z" fill="rgb(226, 169, 144)" fill-opacity="0.64" />
  <path d="M214,340L145,392L196,224Z" fill="rgb(56, 29, 27)" fill-opacity="0.67" />
  <path d="M129,185L98,185L178,334Z" fill="rgb(255, 237, 223)" fill-opacity="0.52" />
  <path d="M328,171L261,285L196,203Z" fill="rgb(244, 194, 171)" fill-opacity="0.59" />
  <path d="M151,338L141,305L113,317Z" fill="rgb(255, 230, 203)" fill-opacity="0.47" />
  <path d="M278,187L215,178L255,153Z" fill="rgb(17, 0, 2)" fill-opacity="0.58" />
  <path d="M175,195L132,204L169,32Z" fill="rgb(99, 61, 52)" fill-opacity="0.76" />
  <path d="M418,-36L331,355L266,292Z" fill="rgb(26, 31, 40)" fill-opacity="0.81" />
  <path d="M190,287L267,265L386,690Z" fill="rgb(254, 215, 183)" fill-opacity="0.37" />
  <path d="M509,37L9,-164L207,94Z" fill="rgb(16, 17, 24)" fill-opacity="0.86" />
  <path d="M179,221L183,240L198,211Z" fill="rgb(255, 188, 161)" fill-opacity="0.53" />
  <path d="M116,155L99,185L98,141Z" fill="rgb(255, 209, 188)" fill-opacity="0.54" />
  <path d="M302,221L183,190L313,193Z" fill="rgb(212, 173, 155)" fill-opacity="0.70" />
  <path d="M93,158L302,144L277,71Z" fill="rgb(255, 199, 169)" fill-opacity="0.29" />
  <path d="M119,113L120,184L143,170Z" fill="rgb(237, 240, 236)" fill-opacity="0.56" />
  <path d="M141,26L183,163L100,95Z" fill="rgb(118, 86, 72)" fill-opacity="0.73" />
  <path d="M170,282L182,213L135,200Z" fill="rgb(122, 67, 50)" fill-opacity="0.63" />
  <path d="M-193,430L125,248L138,298Z" fill="rgb(28, 35, 43)" fill-opacity="0.86" />
  <path d="M183,317L133,297L137,226Z" fill="rgb(218, 194, 174)" fill-opacity="0.55" />
  <path d="M186,306L215,337L262,292Z" fill="rgb(81, 50, 38)" fill-opacity="0.70" />
  <path d="M309,212L298,148L315,151Z" fill="rgb(203, 156, 140)" fill-opacity="0.72" />
  <path d="M279,317L267,291L309,333Z" fill="rgb(50, 49, 50)" fill-opacity="0.79" />
  <path d="M291,219L272,308L533,436Z" fill="rgb(33, 38, 46)" fill-opacity="0.82" />
  <path d="M204,229L173,241L214,243Z" fill="rgb(9, 0, 0)" fill-opacity="0.47" />
  <path d="M338,343L427,381L236,508Z" fill="rgb(80, 84, 88)" fill-opacity="0.93" />
  <path d="M343,334L197,545L114,385Z" fill="rgb(244, 193, 163)" fill-opacity="0.40" />
  <path d="M160,307L110,377L212,343Z" fill="rgb(37, 21, 23)" fill-opacity="0.71" />
  <path d="M241,95L115,100L277,79Z" fill="rgb(131, 86, 68)" fill-opacity="0.67" />
  <path d="M265,298L197,362L327,368Z" fill="rgb(234, 211, 189)" fill-opacity="0.47" />
  <path d="M211,139L185,232L225,227Z" fill="rgb(253, 171, 141)" fill-opacity="0.39" />
  <path d="M311,325L362,42L314,175Z" fill="rgb(32, 36, 43)" fill-opacity="0.98" />
  <path d="M-26,381L128,461L98,345Z" fill="rgb(122, 127, 131)" fill-opacity="0.38" />
  <path d="M149,-23L-300,42L42,337Z" fill="rgb(0, 8, 21)" fill-opacity="0.53" />
  <path d="M212,180L243,159L168,147Z" fill="rgb(151, 99, 80)" fill-opacity="0.77" />
  <path d="M125,251L144,295L128,192Z" fill="rgb(241, 239, 232)" fill-opacity="0.60" />
  <path d="M162,107L167,90L293,111Z" fill="rgb(247, 182, 153)" fill-opacity="0.31" />
  <path d="M111,165L149,143L133,81Z" fill="rgb(217, 217, 209)" fill-opacity="0.32" />
  <path d="M230,197L252,191L228,150Z" fill="rgb(35, 7, 11)" fill-opacity="0.38" />
  <path d="M140,283L126,327L155,337Z" fill="rgb(252, 232, 215)" fill-opacity="0.34" />
  <path d="M215,229L159,258L228,237Z" fill="rgb(75, 42, 37)" fill-opacity="0.70" />
  <path d="M315,198L205,262L286,165Z" fill="rgb(227, 184, 162)" fill-opacity="0.46" />
  <path d="M120,370L182,348L77,313Z" fill="rgb(24, 15, 22)" fill-opacity="0.78" />
  <path d="M172,257L228,261L211,241Z" fill="rgb(204, 140, 120)" fill-opacity="0.54" />
  <path d="M130,178L182,154L163,190Z" fill="rgb(2, 1, 10)" fill-opacity="0.44" />
  <path d="M224,262L175,266L187,276Z" fill="rgb(145, 83, 91)" fill-opacity="0.60" />
  <path d="M177,281L209,271L218,280Z" fill="rgb(40, 0, 8)" fill-opacity="0.52" />
  <path d="M114,202L119,197L104,169Z" fill="rgb(75, 13, 5)" fill-opacity="0.59" />
  <path d="M151,404L112,383L227,329Z" fill="rgb(131, 74, 49)" fill-opacity="0.41" />
  <path d="M312,139L291,175L294,108Z" fill="rgb(56, 39, 31)" fill-opacity="0.55" />
  <path d="M132,206L211,211L177,177Z" fill="rgb(163, 87, 65)" fill-opacity="0.43" />
  <path d="M122,219L18,350L39,158Z" fill="rgb(29, 33, 43)" fill-opacity="0.80" />
  <path d="M111,371L138,432L148,384Z" fill="rgb(248, 154, 110)" fill-opacity="0.26" />
  <path d="M199,163L177,225L201,203Z" fill="rgb(57, 23, 19)" fill-opacity="0.51" />
  <path d="M95,142L113,145L99,112Z" fill="rgb(22, 28, 32)" fill-opacity="0.51" />
  <path d="M329,352L687,-87L293,224Z" fill="rgb(33, 37, 45)" fill-opacity="0.99" />
  <path d="M238,267L204,264L245,260Z" fill="rgb(57, 4, 1)" fill-opacity="0.50" />
  <path d="M137,274L134,305L31,180Z" fill="rgb(33, 40, 47)" fill-opacity="0.75" />
  <path d="M152,259L176,269L183,327Z" fill="rgb(131, 89, 73)" fill-opacity="0.61" />
  <path d="M226,346L274,275L269,336Z" fill="rgb(218, 189, 166)" fill-opacity="0.75" />
  <path d="M205,320L169,378L76,351Z" fill="rgb(23, 15, 21)" fill-opacity="0.38" />
  <path d="M202,173L150,151L154,182Z" fill="rgb(27, 16, 21)" fill-opacity="0.56" />
  <path d="M123,87L163,160L191,123Z" fill="rgb(135, 72, 56)" fill-opacity="0.36" />
  <path d="M305,172L275,275L287,202Z" fill="rgb(161, 120, 100)" fill-opacity="0.57" />
  <path d="M195,380L200,341L260,294Z" fill="rgb(183, 134, 98)" fill-opacity="0.42" />
  <path d="M179,149L232,97L212,171Z" fill="rgb(235, 173, 147)" fill-opacity="0.29" />
  <path d="M274,83L251,160L285,119Z" fill="rgb(203, 164, 140)" fill-opacity="0.63" />
  <path d="M283,203L262,239L198,195Z" fill="rgb(235, 199, 183)" fill-opacity="0.54" />
  <path d="M150,453L211,380L181,377Z" fill="rgb(234, 201, 180)" fill-opacity="0.37" />
  <path d="M132,204L102,196L127,230Z" fill="rgb(255, 249, 241)" fill-opacity="0.36" />
  <path d="M179,312L239,306L222,321Z" fill="rgb(30, 21, 25)" fill-opacity="0.47" />
  <path d="M202,221L210,230L238,202Z" fill="rgb(231, 189, 173)" fill-opacity="0.70" />
  <path d="M103,149L99,162L104,158Z" fill="rgb(77, 14, 3)" fill-opacity="0.61" />
  <path d="M128,311L103,328L116,303Z" fill="rgb(31, 31, 35)" fill-opacity="0.68" />
  <path d="M267,399L229,386L326,372Z" fill="rgb(173, 125, 101)" fill-opacity="0.50" />
  <path d="M279,341L218,375L236,393Z" fill="rgb(220, 195, 180)" fill-opacity="0.49" />
  <path d="M125,171L119,187L138,181Z" fill="rgb(245, 233, 224)" fill-opacity="0.40" />
  <path d="M214,70L223,56L222,85Z" fill="rgb(105, 76, 70)" fill-opacity="0.47" />
  <path d="M107,108L111,80L120,146Z" fill="rgb(227, 228, 203)" fill-opacity="0.23" />
  <path d="M-4,354L72,330L52,397Z" fill="rgb(71, 70, 75)" fill-opacity="0.74" />
  <path d="M270,233L273,251L305,213Z" fill="rgb(174, 137, 111)" fill-opacity="0.44" />
  <path d="M268,289L218,310L231,286Z" fill="rgb(160, 116, 91)" fill-opacity="0.70" />
  <path d="M75,369L59,375L74,348Z" fill="rgb(128, 127, 130)" fill-opacity="0.50" />
  <path d="M112,177L118,193L95,182Z" fill="rgb(119, 56, 52)" fill-opacity="0.49" />
  <path d="M145,160L146,168L104,163Z" fill="rgb(233, 218, 209)" fill-opacity="0.46" />
  <path d="M204,229L199,195L192,239Z" fill="rgb(138, 74, 64)" fill-opacity="0.51" />
  <path d="M103,141L98,146L121,167Z" fill="rgb(247, 223, 213)" fill-opacity="0.40" />
  <path d="M201,189L212,171L221,203Z" fill="rgb(245, 203, 179)" fill-opacity="0.45" />
  <path d="M238,223L224,222L248,245Z" fill="rgb(189, 117, 88)" fill-opacity="0.55" />
  <path d="M303,194L253,157L304,173Z" fill="rgb(165, 118, 95)" fill-opacity="0.52" />
  <path d="M179,182L178,157L204,182Z" fill="rgb(10, 0, 0)" fill-opacity="0.40" />
  <path d="M162,72L160,79L147,72Z" fill="rgb(139, 121, 112)" fill-opacity="0.50" />
  <path d="M413,250L270,71L407,49Z" fill="rgb(25, 28, 34)" fill-opacity="0.85" />
  <path d="M273,187L236,203L254,177Z" fill="rgb(157, 113, 94)" fill-opacity="0.54" />
  <path d="M140,281L135,335L130,324Z" fill="rgb(234, 229, 218)" fill-opacity="0.55" />
  <path d="M276,-146L257,86L222,94Z" fill="rgb(10, 2, 9)" fill-opacity="0.34" />
  <path d="M313,150L317,167L307,170Z" fill="rgb(155, 109, 100)" fill-opacity="1.00" />
  <path d="M146,69L106,75L121,39Z" fill="rgb(71, 59, 54)" fill-opacity="0.63" />
  <path d="M197,281L219,305L175,291Z" fill="rgb(203, 138, 111)" fill-opacity="0.42" />
  <path d="M160,244L140,314L131,246Z" fill="rgb(224, 212, 201)" fill-opacity="0.50" />
  <path d="M178,266L181,272L235,268Z" fill="rgb(241, 159, 166)" fill-opacity="0.33" />
  <path d="M195,320L176,325L157,297Z" fill="rgb(169, 130, 104)" fill-opacity="0.52" />
  <path d="M142,194L168,229L180,197Z" fill="rgb(202, 128, 102)" fill-opacity="0.48" />
  <path d="M158,334L152,294L141,318Z" fill="rgb(127, 83, 62)" fill-opacity="0.45" />
  <path d="M139,88L152,88L145,61Z" fill="rgb(42, 30, 28)" fill-opacity="0.56" />
  <path d="M157,272L164,241L179,262Z" fill="rgb(44, 27, 27)" fill-opacity="0.48" />
  <path d="M145,188L151,179L177,179Z" fill="rgb(131, 102, 98)" fill-opacity="0.45" />
  <path d="M198,251L204,263L193,254Z" fill="rgb(219, 156, 143)" fill-opacity="0.53" />
  <path d="M338,387L350,351L341,345Z" fill="rgb(141, 156, 158)" fill-opacity="0.37" />
  <path d="M196,44L163,55L133,19Z" fill="rgb(99, 76, 64)" fill-opacity="0.46" />
  <path d="M220,183L227,159L268,177Z" fill="rgb(24, 14, 18)" fill-opacity="0.41" />
  <path d="M177,84L212,25L162,72Z" fill="rgb(23, 14, 17)" fill-opacity="0.64" />
  <path d="M307,87L292,158L278,76Z" fill="rgb(93, 61, 47)" fill-opacity="0.42" />
  <path d="M130,127L114,216L136,171Z" fill="rgb(227, 218, 211)" fill-opacity="0.61" />
  <path d="M202,245L168,237L196,232Z" fill="rgb(7, 0, 10)" fill-opacity="0.48" />
  <path d="M208,248L235,234L236,253Z" fill="rgb(243, 193, 168)" fill-opacity="0.45" />
  <path d="M313,334L337,356L202,344Z" fill="rgb(222, 193, 168)" fill-opacity="0.34" />
  <path d="M104,181L104,192L101,185Z" fill="rgb(255, 255, 255)" fill-opacity="0.56" />
  <path d="M299,162L309,147L310,205Z" fill="rgb(226, 179, 163)" fill-opacity="0.48" />
  <path d="M117,127L144,130L135,154Z" fill="rgb(214, 213, 212)" fill-opacity="0.46" />
  <path d="M327,342L326,384L334,356Z" fill="rgb(119, 107, 102)" fill-opacity="0.64" />
  <path d="M147,218L129,194L151,259Z" fill="rgb(188, 161, 148)" fill-opacity="0.73" />
  <path d="M298,329L269,305L335,346Z" fill="rgb(51, 41, 36)" fill-opacity="0.55" />
  <path d="M309,-36L442,215L301,146Z" fill="rgb(27, 31, 37)" fill-opacity="0.75" />
  <path d="M139,67L130,30L137,46Z" fill="rgb(175, 164, 152)" fill-opacity="0.53" />
  <path d="M246,246L236,256L241,286Z" fill="rgb(168, 114, 81)" fill-opacity="0.50" />
  <path d="M187,300L203,281L226,303Z" fill="rgb(215, 158, 133)" fill-opacity="0.29" />
  <path d="M107,118L144,134L145,111Z" fill="rgb(180, 150, 133)" fill-opacity="0.52" />
  <path d="M114,168L121,178L104,187Z" fill="rgb(81, 19, 16)" fill-opacity="0.51" />
  <path d="M176,222L125,191L187,187Z" fill="rgb(166, 110, 90)" fill-opacity="0.50" />
  <path d="M288,156L273,188L297,191Z" fill="rgb(197, 165, 141)" fill-opacity="0.52" />
  <path d="M60,389L58,380L39,416Z" fill="rgb(163, 172, 175)" fill-opacity="0.45" />
  <path d="M258,161L245,183L232,160Z" fill="rgb(44, 27, 30)" fill-opacity="0.56" />
  <path d="M250,166L291,165L259,173Z" fill="rgb(132, 94, 79)" fill-opacity="0.58" />
  <path d="M145,23L148,29L145,30Z" fill="rgb(199, 185, 167)" fill-opacity="0.51" />
  <path d="M71,328L-23,362L26,218Z" fill="rgb(27, 31, 40)" fill-opacity="0.97" />
  <path d="M129,317L88,327L77,367Z" fill="rgb(17, 12, 13)" fill-opacity="0.28" />
  <path d="M215,171L219,205L236,194Z" fill="rgb(210, 155, 123)" fill-opacity="0.40" />
  <path d="M144,170L132,195L135,171Z" fill="rgb(107, 66, 48)" fill-opacity="0.47" />
  <path d="M184,254L206,262L188,276Z" fill="rgb(84, 34, 40)" fill-opacity="0.49" />
  <path d="M157,23L310,76L243,9Z" fill="rgb(4, 4, 11)" fill-opacity="0.79" />
  <path d="M228,273L236,268L231,287Z" fill="rgb(237, 170, 139)" fill-opacity="0.50" />
  <path d="M120,206L123,242L141,279Z" fill="rgb(229, 222, 215)" fill-opacity="0.73" />
  <path d="M212,271L196,286L218,282Z" fill="rgb(107, 54, 50)" fill-opacity="0.46" />
  <path d="M131,121L123,85L118,125Z" fill="rgb(139, 113, 99)" fill-opacity="0.43" />
  <path d="M174,321L149,259L181,319Z" fill="rgb(180, 145, 127)" fill-opacity="0.55" />
  <path d="M270,289L245,289L283,233Z" fill="rgb(188, 147, 121)" fill-opacity="0.52" />
  <path d="M333,356L326,373L311,363Z" fill="rgb(144, 116, 103)" fill-opacity="0.47" />
  <path d="M153,238L145,208L194,258Z" fill="rgb(116, 72, 60)" fill-opacity="0.72" />
  <path d="M162,53L156,31L175,73Z" fill="rgb(107, 96, 92)" fill-opacity="0.53" />
  <path d="M289,81L263,61L277,90Z" fill="rgb(63, 37, 29)" fill-opacity="0.51" />
  <path d="M241,266L202,266L206,257Z" fill="rgb(89, 32, 36)" fill-opacity="0.54" />
  <path d="M163,259L183,278L174,254Z" fill="rgb(29, 13, 17)" fill-opacity="0.53" />
  <path d="M144,298L167,306L158,322Z" fill="rgb(107, 71, 59)" fill-opacity="0.55" />
  <path d="M215,240L189,256L234,263Z" fill="rgb(199, 146, 125)" fill-opacity="0.56" />
  <path d="M52,388L65,357L24,431Z" fill="rgb(6, 12, 15)" fill-opacity="0.44" />
  <path d="M105,158L103,195L99,177Z" fill="rgb(218, 190, 179)" fill-opacity="0.71" />
  <path d="M251,64L238,92L280,71Z" fill="rgb(70, 43, 33)" fill-opacity="0.47" />
  <path d="M73,394L76,426L96,333Z" fill="rgb(127, 128, 131)" fill-opacity="0.36" />
  <path d="M276,82L281,152L287,117Z" fill="rgb(163, 123, 94)" fill-opacity="0.55" />
  <path d="M138,154L160,175L141,144Z" fill="rgb(98, 72, 62)" fill-opacity="0.43" />
  <path d="M225,62L220,59L222,47Z" fill="rgb(118, 95, 87)" fill-opacity="0.49" />
  <path d="M109,136L122,165L109,118Z" fill="rgb(148, 136, 124)" fill-opacity="0.72" />
  <path d="M198,125L212,90L280,117Z" fill="rgb(215, 191, 180)" fill-opacity="0.31" />
  <path d="M80,371L86,342L61,411Z" fill="rgb(35, 34, 39)" fill-opacity="0.63" />
  <path d="M102,173L113,204L118,173Z" fill="rgb(81, 24, 17)" fill-opacity="0.43" />
  <path d="M147,90L137,73L175,88Z" fill="rgb(56, 37, 32)" fill-opacity="0.60" />
  <path d="M102,168L109,144L102,180Z" fill="rgb(243, 200, 189)" fill-opacity="0.56" />
  <path d="M125,223L130,197L115,187Z" fill="rgb(231, 227, 223)" fill-opacity="0.51" />
  <path d="M14,355L8,410L-47,377Z" fill="rgb(53, 54, 60)" fill-opacity="0.66" />
  <path d="M330,400L349,349L311,410Z" fill="rgb(105, 113, 117)" fill-opacity="0.56" />
  <path d="M171,20L100,26L231,-34Z" fill="rgb(24, 29, 36)" fill-opacity="0.90" />
  <path d="M133,307L135,276L83,329Z" fill="rgb(38, 45, 51)" fill-opacity="0.73" />
  <path d="M175,75L164,137L189,156Z" fill="rgb(182, 107, 84)" fill-opacity="0.42" />
  <path d="M38,143L88,241L102,183Z" fill="rgb(26, 33, 42)" fill-opacity="0.42" />
  <path d="M92,322L77,331L83,331Z" fill="rgb(153, 152, 152)" fill-opacity="0.49" />
  <path d="M94,322L80,329L96,324Z" fill="rgb(130, 129, 128)" fill-opacity="0.55" />
  <path d="M186,300L217,323L173,305Z" fill="rgb(22, 17, 22)" fill-opacity="0.37" />
  <path d="M277,158L264,187L279,181Z" fill="rgb(137, 94, 67)" fill-opacity="0.44" />
  <path d="M195,224L181,233L176,227Z" fill="rgb(255, 244, 236)" fill-opacity="0.34" />
  <path d="M137,69L126,65L136,81Z" fill="rgb(114, 105, 98)" fill-opacity="0.52" />
  <path d="M304,158L307,164L315,160Z" fill="rgb(100, 52, 39)" fill-opacity="0.41" />
  <path d="M257,277L226,268L204,299Z" fill="rgb(213, 156, 129)" fill-opacity="0.56" />
  <path d="M391,389L404,408L391,442Z" fill="rgb(118, 129, 130)" fill-opacity="0.60" />
  <path d="M174,79L137,33L164,55Z" fill="rgb(49, 34, 31)" fill-opacity="0.65" />
  <path d="M298,135L295,174L292,151Z" fill="rgb(66, 47, 37)" fill-opacity="0.60" />
  <path d="M98,149L98,165L99,149Z" fill="rgb(255, 255, 255)" fill-opacity="0.50" />
  <path d="M161,65L203,91L252,82Z" fill="rgb(46, 29, 29)" fill-opacity="0.69" />
  <path d="M237,356L225,395L210,339Z" fill="rgb(211, 173, 148)" fill-opacity="0.55" />
  <path d="M153,154L171,156L149,79Z" fill="rgb(112, 73, 64)" fill-opacity="0.67" />
  <path d="M155,64L161,58L165,71Z" fill="rgb(102, 85, 80)" fill-opacity="0.46" />
  <path d="M121,81L143,89L128,110Z" fill="rgb(124, 104, 90)" fill-opacity="0.76" />
  <path d="M137,336L150,308L147,337Z" fill="rgb(161, 124, 104)" fill-opacity="0.44" />
  <path d="M181,234L176,240L176,218Z" fill="rgb(40, 19, 25)" fill-opacity="0.59" />
  <path d="M273,296L280,316L273,271Z" fill="rgb(39, 30, 27)" fill-opacity="0.48" />
  <path d="M244,267L265,257L250,292Z" fill="rgb(216, 172, 147)" fill-opacity="0.56" />
  <path d="M404,376L339,317L419,231Z" fill="rgb(31, 35, 43)" fill-opacity="0.97" />
  <path d="M152,221L178,222L171,236Z" fill="rgb(160, 100, 79)" fill-opacity="0.57" />
  <path d="M269,166L275,149L215,121Z" fill="rgb(213, 178, 164)" fill-opacity="0.49" />
  <path d="M222,234L208,234L223,241Z" fill="rgb(42, 5, 7)" fill-opacity="0.56" />
  <path d="M96,375L129,361L115,421Z" fill="rgb(103, 89, 84)" fill-opacity="0.29" />
  <path d="M14,406L22,390L9,384Z" fill="rgb(135, 141, 149)" fill-opacity="0.43" />
  <path d="M143,49L150,62L132,57Z" fill="rgb(145, 126, 113)" fill-opacity="0.41" />
  <path d="M130,219L149,220L134,246Z" fill="rgb(210, 194, 182)" fill-opacity="0.56" />
  <path d="M250,26L319,61L287,80Z" fill="rgb(6, 5, 14)" fill-opacity="0.66" />
  <path d="M316,54L302,-17L204,-1Z" fill="rgb(31, 38, 51)" fill-opacity="0.43" />
  <path d="M222,97L275,155L229,158Z" fill="rgb(211, 174, 161)" fill-opacity="0.47" />
  <path d="M393,398L335,423L366,359Z" fill="rgb(54, 54, 59)" fill-opacity="0.38" />
  <path d="M326,369L338,337L330,340Z" fill="rgb(87, 76, 74)" fill-opacity="0.61" />
  <path d="M148,148L139,124L120,142Z" fill="rgb(227, 220, 217)" fill-opacity="0.34" />
  <path d="M290,104L269,81L253,85Z" fill="rgb(172, 123, 97)" fill-opacity="0.43" />
  <path d="M172,188L155,218L175,208Z" fill="rgb(200, 138, 116)" fill-opacity="0.44" />
  <path d="M165,146L206,89L236,163Z" fill="rgb(204, 141, 115)" fill-opacity="0.27" />
  <path d="M128,194L151,200L146,216Z" fill="rgb(125, 86, 71)" fill-opacity="0.46" />
  <path d="M202,161L197,187L207,176Z" fill="rgb(96, 56, 39)" fill-opacity="0.51" />
  <path d="M113,203L112,200L105,215Z" fill="rgb(100, 79, 76)" fill-opacity="0.51" />
  <path d="M251,227L223,210L288,190Z" fill="rgb(232, 199, 185)" fill-opacity="0.42" />
  <path d="M337,344L337,150L301,220Z" fill="rgb(36, 40, 48)" fill-opacity="0.76" />
  <path d="M179,230L182,233L188,224Z" fill="rgb(255, 251, 237)" fill-opacity="0.48" />
  <path d="M188,81L228,40L170,51Z" fill="rgb(20, 13, 17)" fill-opacity="0.61" />
  <path d="M182,43L182,56L184,52Z" fill="rgb(155, 137, 131)" fill-opacity="0.53" />
  <path d="M187,96L178,79L214,88Z" fill="rgb(96, 60, 51)" fill-opacity="0.47" />
  <path d="M138,335L114,311L131,333Z" fill="rgb(97, 67, 52)" fill-opacity="0.60" />
  <path d="M106,44L128,68L113,102Z" fill="rgb(65, 53, 48)" fill-opacity="0.54" />
  <path d="M314,180L311,175L315,164Z" fill="rgb(215, 168, 152)" fill-opacity="0.47" />
  <path d="M306,150L305,160L315,155Z" fill="rgb(236, 199, 178)" fill-opacity="0.49" />
  <path d="M281,129L264,141L293,170Z" fill="rgb(185, 152, 125)" fill-opacity="0.54" />
  <path d="M99,180L111,195L106,201Z" fill="rgb(243, 223, 213)" fill-opacity="0.58" />
  <path d="M209,284L221,302L198,291Z" fill="rgb(215, 173, 151)" fill-opacity="0.56" />
  <path d="M302,184L292,181L293,156Z" fill="rgb(109, 65, 45)" fill-opacity="0.43" />
  <path d="M103,184L116,167L106,167Z" fill="rgb(89, 35, 26)" fill-opacity="0.58" />
  <path d="M120,186L115,180L117,189Z" fill="rgb(192, 158, 146)" fill-opacity="0.51" />
  <path d="M187,215L205,240L190,230Z" fill="rgb(166, 118, 106)" fill-opacity="0.50" />
  <path d="M168,23L172,65L173,25Z" fill="rgb(76, 61, 59)" fill-opacity="0.47" />
  <path d="M220,338L264,381L299,328Z" fill="rgb(217, 192, 173)" fill-opacity="0.52" />
  <path d="M207,339L205,323L161,317Z" fill="rgb(57, 34, 30)" fill-opacity="0.48" />
  <path d="M178,109L124,105L165,87Z" fill="rgb(127, 81, 64)" fill-opacity="0.49" />
  <path d="M228,299L217,309L243,312Z" fill="rgb(103, 72, 61)" fill-opacity="0.51" />
  <path d="M144,68L148,65L155,77Z" fill="rgb(144, 131, 125)" fill-opacity="0.49" />
  <path d="M28,345L18,349L27,344Z" fill="rgb(189, 198, 195)" fill-opacity="0.45" />
  <path d="M187,274L180,263L179,271Z" fill="rgb(181, 163, 155)" fill-opacity="0.49" />
  <path d="M322,341L308,327L333,346Z" fill="rgb(36, 22, 21)" fill-opacity="0.55" />
  <path d="M247,157L223,181L207,166Z" fill="rgb(108, 69, 54)" fill-opacity="0.38" />
  <path d="M4,148L115,2L-56,-94Z" fill="rgb(12, 17, 26)" fill-opacity="0.66" />
  <path d="M271,182L276,180L255,152Z" fill="rgb(126, 83, 66)" fill-opacity="0.60" />
  <path d="M295,214L281,240L292,210Z" fill="rgb(142, 106, 88)" fill-opacity="0.48" />
  <path d="M155,299L170,322L168,308Z" fill="rgb(115, 79, 61)" fill-opacity="0.45" />
  <path d="M128,137L108,94L109,127Z" fill="rgb(186, 176, 162)" fill-opacity="0.38" />
  <path d="M111,211L102,190L116,213Z" fill="rgb(233, 225, 217)" fill-opacity="0.47" />
  <path d="M185,260L188,245L174,259Z" fill="rgb(125, 84, 76)" fill-opacity="0.52" />
  <path d="M179,356L176,376L158,384Z" fill="rgb(131, 85, 67)" fill-opacity="0.47" />
  <path d="M212,95L180,125L173,96Z" fill="rgb(188, 128, 104)" fill-opacity="0.71" />
  <path d="M107,112L111,149L99,133Z" fill="rgb(39, 34, 38)" fill-opacity="0.67" />
  <path d="M65,352L69,355L54,378Z" fill="rgb(26, 25, 29)" fill-opacity="0.48" />
  <path d="M130,186L206,193L182,181Z" fill="rgb(100, 64, 56)" fill-opacity="0.48" />
  <path d="M158,301L173,296L135,274Z" fill="rgb(205, 178, 159)" fill-opacity="0.59" />
  <path d="M138,282L164,290L124,246Z" fill="rgb(222, 209, 198)" fill-opacity="0.55" />
  <path d="M187,210L178,224L180,226Z" fill="rgb(54, 30, 22)" fill-opacity="0.79" />
  <path d="M248,160L256,154L219,157Z" fill="rgb(175, 131, 113)" fill-opacity="0.51" />
  <path d="M235,103L295,106L261,88Z" fill="rgb(236, 185, 154)" fill-opacity="0.19" />
  <path d="M280,102L240,98L272,156Z" fill="rgb(204, 163, 143)" fill-opacity="0.57" />
  <path d="M113,161L118,173L117,150Z" fill="rgb(227, 208, 194)" fill-opacity="0.54" />
  <path d="M262,290L282,268L258,288Z" fill="rgb(117, 91, 72)" fill-opacity="0.55" />
  <path d="M303,152L308,207L314,184Z" fill="rgb(216, 177, 165)" fill-opacity="0.53" />
  <path d="M159,369L176,355L95,362Z" fill="rgb(39, 26, 27)" fill-opacity="0.57" />
  <path d="M180,374L126,389L129,448Z" fill="rgb(178, 119, 92)" fill-opacity="0.48" />
  <path d="M175,276L175,296L191,284Z" fill="rgb(118, 76, 63)" fill-opacity="0.60" />
  <path d="M161,313L138,358L190,336Z" fill="rgb(30, 18, 23)" fill-opacity="0.49" />
  <path d="M97,150L98,164L100,150Z" fill="rgb(228, 181, 177)" fill-opacity="0.46" />
  <path d="M75,67L100,178L95,313Z" fill="rgb(28, 34, 43)" fill-opacity="0.67" />
  <path d="M297,223L308,207L296,188Z" fill="rgb(225, 195, 180)" fill-opacity="0.52" />
  <path d="M310,372L317,371L296,413Z" fill="rgb(174, 133, 110)" fill-opacity="0.74" />
  <path d="M144,30L134,39L139,50Z" fill="rgb(41, 30, 30)" fill-opacity="0.47" />
  <path d="M162,265L171,263L155,286Z" fill="rgb(136, 97, 84)" fill-opacity="0.49" />
  <path d="M209,306L198,290L188,302Z" fill="rgb(146, 97, 78)" fill-opacity="0.51" />
  <path d="M126,52L128,51L125,49Z" fill="rgb(186, 172, 175)" fill-opacity="0.44" />
  <path d="M167,187L150,186L164,179Z" fill="rgb(64, 32, 32)" fill-opacity="0.47" />
  <path d="M234,247L265,269L259,223Z" fill="rgb(220, 171, 147)" fill-opacity="0.60" />
  <path d="M232,190L258,190L217,178Z" fill="rgb(112, 59, 47)" fill-opacity="0.46" />
  <path d="M96,322L124,322L139,367Z" fill="rgb(20, 11, 17)" fill-opacity="0.61" />
  <path d="M145,150L143,135L152,153Z" fill="rgb(196, 165, 150)" fill-opacity="0.51" />
  <path d="M127,232L128,190L119,182Z" fill="rgb(238, 236, 232)" fill-opacity="0.46" />
  <path d="M250,194L216,193L251,208Z" fill="rgb(196, 155, 140)" fill-opacity="0.60" />
  <path d="M133,50L138,59L133,34Z" fill="rgb(181, 170, 158)" fill-opacity="0.55" />
  <path d="M63,371L66,390L53,386Z" fill="rgb(113, 117, 121)" fill-opacity="0.56" />
  <path d="M26,343L63,335L34,351Z" fill="rgb(89, 89, 92)" fill-opacity="0.55" />
  <path d="M126,187L137,164L126,150Z" fill="rgb(233, 229, 225)" fill-opacity="0.51" />
  <path d="M149,65L153,64L160,79Z" fill="rgb(36, 18, 11)" fill-opacity="0.47" />
  <path d="M135,309L137,259L141,325Z" fill="rgb(228, 222, 213)" fill-opacity="0.64" />
  <path d="M115,165L102,154L115,162Z" fill="rgb(118, 73, 63)" fill-opacity="0.50" />
  <path d="M181,212L182,187L171,242Z" fill="rgb(126, 82, 69)" fill-opacity="0.46" />
  <path d="M178,229L191,246L171,235Z" fill="rgb(28, 6, 15)" fill-opacity="0.49" />
  <path d="M236,262L207,240L229,244Z" fill="rgb(208, 159, 135)" fill-opacity="0.50" />
  <path d="M224,266L209,272L202,266Z" fill="rgb(229, 146, 156)" fill-opacity="0.47" />
  <path d="M372,358L419,381L338,352Z" fill="rgb(148, 178, 190)" fill-opacity="0.17" />
  <path d="M235,268L210,259L247,268Z" fill="rgb(57, 12, 9)" fill-opacity="0.37" />
  <path d="M155,24L142,50L143,20Z" fill="rgb(125, 105, 86)" fill-opacity="0.34" />
  <path d="M189,160L156,154L199,169Z" fill="rgb(77, 45, 41)" fill-opacity="0.56" />
  <path d="M188,84L188,52L180,79Z" fill="rgb(63, 45, 44)" fill-opacity="0.44" />
  <path d="M292,224L291,232L306,224Z" fill="rgb(34, 26, 29)" fill-opacity="0.48" />
  <path d="M90,405L93,367L106,403Z" fill="rgb(61, 58, 64)" fill-opacity="0.48" />
  <path d="M-6,359L0,359L24,347Z" fill="rgb(150, 154, 156)" fill-opacity="0.51" />
  <path d="M111,108L127,121L119,93Z" fill="rgb(152, 128, 113)" fill-opacity="0.43" />
  <path d="M177,271L177,277L200,282Z" fill="rgb(30, 7, 10)" fill-opacity="0.51" />
  <path d="M213,185L201,226L231,232Z" fill="rgb(226, 180, 163)" fill-opacity="0.54" />
  <path d="M154,175L200,184L169,165Z" fill="rgb(4, 3, 16)" fill-opacity="0.40" />
  <path d="M275,321L329,355L315,336Z" fill="rgb(194, 153, 119)" fill-opacity="0.44" />
  <path d="M199,236L191,221L205,175Z" fill="rgb(157, 96, 81)" fill-opacity="0.59" />
  <path d="M200,276L223,271L192,266Z" fill="rgb(181, 96, 103)" fill-opacity="0.49" />
  <path d="M200,248L212,250L203,258Z" fill="rgb(163, 102, 83)" fill-opacity="0.53" />
  <path d="M191,74L173,58L184,57Z" fill="rgb(5, 1, 6)" fill-opacity="0.49" />
  <path d="M203,231L240,237L200,223Z" fill="rgb(199, 131, 112)" fill-opacity="0.45" />
  <path d="M139,52L144,59L142,80Z" fill="rgb(60, 45, 39)" fill-opacity="0.48" />
  <path d="M231,12L212,64L179,13Z" fill="rgb(2, 2, 9)" fill-opacity="0.65" />
  <path d="M125,40L135,68L130,44Z" fill="rgb(33, 23, 19)" fill-opacity="0.50" />
  <path d="M190,267L219,282L225,274Z" fill="rgb(151, 79, 72)" fill-opacity="0.38" />
  <path d="M400,391L425,370L389,371Z" fill="rgb(91, 115, 123)" fill-opacity="0.34" />
  <path d="M333,379L336,390L322,407Z" fill="rgb(120, 126, 130)" fill-opacity="0.45" />
  <path d="M89,359L50,339L100,351Z" fill="rgb(81, 80, 82)" fill-opacity="0.45" />
  <path d="M148,243L157,259L160,291Z" fill="rgb(187, 162, 150)" fill-opacity="0.63" />
  <path d="M66,347L69,332L86,333Z" fill="rgb(39, 35, 39)" fill-opacity="0.55" />
  <path d="M334,348L327,338L342,347Z" fill="rgb(88, 89, 99)" fill-opacity="0.59" />
  <path d="M99,153L101,173L104,149Z" fill="rgb(94, 43, 30)" fill-opacity="0.55" />
  <path d="M270,166L279,173L237,169Z" fill="rgb(137, 98, 85)" fill-opacity="0.53" />
  <path d="M187,16L178,63L178,32Z" fill="rgb(14, 7, 9)" fill-opacity="0.63" />
  <path d="M264,286L282,257L270,239Z" fill="rgb(194, 156, 131)" fill-opacity="0.56" />
  <path d="M142,502L279,375L209,388Z" fill="rgb(191, 140, 115)" fill-opacity="0.37" />
  <path d="M89,346L81,365L112,395Z" fill="rgb(100, 101, 104)" fill-opacity="0.26" />
  <path d="M156,181L154,185L149,179Z" fill="rgb(207, 191, 183)" fill-opacity="0.40" />
  <path d="M228,173L254,172L261,179Z" fill="rgb(0, 1, 10)" fill-opacity="0.46" />
  <path d="M175,75L184,86L159,65Z" fill="rgb(92, 79, 80)" fill-opacity="0.53" />
  <path d="M331,360L315,385L305,381Z" fill="rgb(124, 82, 65)" fill-opacity="0.42" />
  <path d="M142,210L134,176L154,218Z" fill="rgb(115, 71, 55)" fill-opacity="0.50" />
  <path d="M8,286L120,313L121,214Z" fill="rgb(31, 39, 48)" fill-opacity="0.47" />
  <path d="M314,154L466,300L304,67Z" fill="rgb(31, 34, 41)" fill-opacity="0.78" />
  <path d="M121,317L131,320L134,306Z" fill="rgb(201, 159, 132)" fill-opacity="0.49" />
  <path d="M383,410L366,381L363,429Z" fill="rgb(82, 82, 87)" fill-opacity="0.63" />
  <path d="M122,381L148,372L106,352Z" fill="rgb(69, 40, 29)" fill-opacity="0.43" />
  <path d="M212,282L183,278L211,276Z" fill="rgb(10, 3, 5)" fill-opacity="0.40" />
  <path d="M134,178L132,184L173,189Z" fill="rgb(63, 37, 31)" fill-opacity="0.36" />
  <path d="M106,168L105,150L103,161Z" fill="rgb(248, 197, 191)" fill-opacity="0.57" />
  <path d="M291,199L294,216L295,178Z" fill="rgb(147, 112, 94)" fill-opacity="0.62" />
  <path d="M250,291L241,295L244,223Z" fill="rgb(202, 154, 122)" fill-opacity="0.52" />
  <path d="M144,47L153,29L158,70Z" fill="rgb(56, 35, 31)" fill-opacity="0.55" />
  <path d="M192,259L211,266L162,262Z" fill="rgb(40, 6, 14)" fill-opacity="0.45" />
  <path d="M314,159L312,166L307,159Z" fill="rgb(84, 17, 3)" fill-opacity="0.44" />
  <path d="M299,112L280,119L291,148Z" fill="rgb(109, 83, 67)" fill-opacity="0.50" />
  <path d="M166,78L159,69L158,75Z" fill="rgb(102, 94, 88)" fill-opacity="0.35" />
  <path d="M69,394L53,405L71,409Z" fill="rgb(28, 29, 34)" fill-opacity="0.41" />
  <path d="M190,187L173,177L179,200Z" fill="rgb(136, 95, 84)" fill-opacity="0.47" />
  <path d="M156,173L143,185L141,178Z" fill="rgb(20, 13, 24)" fill-opacity="0.44" />
  <path d="M215,102L246,96L242,124Z" fill="rgb(214, 184, 171)" fill-opacity="0.56" />
  <path d="M158,47L168,63L148,57Z" fill="rgb(37, 25, 24)" fill-opacity="0.56" />
  <path d="M136,23L152,47L139,33Z" fill="rgb(104, 90, 80)" fill-opacity="0.50" />
  <path d="M132,58L114,59L125,68Z" fill="rgb(107, 92, 87)" fill-opacity="0.45" />
  <path d="M274,313L272,284L416,319Z" fill="rgb(43, 47, 57)" fill-opacity="0.31" />
  <path d="M200,355L251,305L222,319Z" fill="rgb(155, 110, 86)" fill-opacity="0.55" />
  <path d="M303,217L291,226L298,191Z" fill="rgb(216, 185, 169)" fill-opacity="0.43" />
  <path d="M135,197L128,196L152,225Z" fill="rgb(158, 122, 107)" fill-opacity="0.45" />
  <path d="M105,169L103,163L108,161Z" fill="rgb(254, 217, 209)" fill-opacity="0.58" />
  <path d="M148,308L158,338L149,337Z" fill="rgb(92, 64, 55)" fill-opacity="0.50" />
  <path d="M134,381L169,378L147,369Z" fill="rgb(100, 66, 55)" fill-opacity="0.53" />
  <path d="M275,310L269,305L274,339Z" fill="rgb(195, 166, 141)" fill-opacity="0.65" />
  <path d="M173,170L174,159L156,169Z" fill="rgb(70, 54, 51)" fill-opacity="0.45" />
  <path d="M293,224L291,220L312,199Z" fill="rgb(209, 179, 166)" fill-opacity="0.51" />
  <path d="M3,423L28,374L18,380Z" fill="rgb(112, 114, 120)" fill-opacity="0.45" />
  <path d="M192,246L175,234L206,238Z" fill="rgb(22, 11, 19)" fill-opacity="0.71" />
  <path d="M224,179L210,177L206,159Z" fill="rgb(165, 115, 89)" fill-opacity="0.52" />
  <path d="M180,272L181,267L191,270Z" fill="rgb(191, 158, 155)" fill-opacity="0.45" />
  <path d="M131,107L131,140L141,118Z" fill="rgb(195, 166, 151)" fill-opacity="0.47" />
  <path d="M146,396L142,381L173,379Z" fill="rgb(157, 105, 81)" fill-opacity="0.62" />
  <path d="M176,24L156,36L167,27Z" fill="rgb(73, 63, 63)" fill-opacity="0.56" />
  <path d="M296,130L297,161L305,138Z" fill="rgb(75, 60, 57)" fill-opacity="0.57" />
  <path d="M221,258L202,261L212,250Z" fill="rgb(248, 179, 172)" fill-opacity="0.33" />
  <path d="M186,366L161,375L249,293Z" fill="rgb(102, 71, 56)" fill-opacity="0.48" />
  <path d="M229,269L236,275L212,276Z" fill="rgb(214, 153, 132)" fill-opacity="0.55" />
  <path d="M205,176L208,203L218,176Z" fill="rgb(226, 183, 162)" fill-opacity="0.46" />
  <path d="M122,166L119,207L116,149Z" fill="rgb(186, 163, 147)" fill-opacity="0.44" />
  <path d="M87,334L126,410L116,384Z" fill="rgb(57, 54, 56)" fill-opacity="0.71" />
  <path d="M107,190L119,175L115,169Z" fill="rgb(71, 29, 29)" fill-opacity="0.60" />
  <path d="M147,244L161,233L152,218Z" fill="rgb(97, 61, 50)" fill-opacity="0.39" />
  <path d="M176,160L137,127L185,157Z" fill="rgb(135, 90, 80)" fill-opacity="0.51" />
  <path d="M321,348L272,368L301,377Z" fill="rgb(207, 178, 160)" fill-opacity="0.64" />
  <path d="M170,253L176,221L160,227Z" fill="rgb(147, 96, 78)" fill-opacity="0.39" />
  <path d="M65,362L65,383L74,350Z" fill="rgb(119, 119, 121)" fill-opacity="0.51" />
  <path d="M208,245L209,239L177,256Z" fill="rgb(109, 78, 63)" fill-opacity="0.53" />
  <path d="M343,349L343,362L339,342Z" fill="rgb(128, 137, 139)" fill-opacity="0.51" />
  <path d="M67,351L57,341L41,375Z" fill="rgb(84, 82, 83)" fill-opacity="0.57" />
  <path d="M111,153L113,125L115,152Z" fill="rgb(116, 92, 76)" fill-opacity="0.45" />
  <path d="M321,81L304,106L280,96Z" fill="rgb(40, 30, 32)" fill-opacity="0.42" />
  <path d="M200,207L184,226L189,213Z" fill="rgb(208, 148, 127)" fill-opacity="0.41" />
  <path d="M313,386L314,430L324,367Z" fill="rgb(52, 46, 51)" fill-opacity="0.35" />
  <path d="M81,338L75,343L78,355Z" fill="rgb(96, 94, 96)" fill-opacity="0.53" />
  <path d="M293,178L280,155L285,225Z" fill="rgb(203, 172, 152)" fill-opacity="0.46" />
  <path d="M248,251L225,222L230,216Z" fill="rgb(188, 122, 90)" fill-opacity="0.40" />
  <path d="M133,100L138,105L137,88Z" fill="rgb(165, 135, 117)" fill-opacity="0.50" />
  <path d="M208,352L181,369L194,376Z" fill="rgb(173, 124, 94)" fill-opacity="0.65" />
  <path d="M129,92L130,97L118,95Z" fill="rgb(81, 64, 52)" fill-opacity="0.52" />
  <path d="M168,45L164,37L166,43Z" fill="rgb(180, 168, 170)" fill-opacity="0.47" />
  <path d="M141,49L120,-4L138,47Z" fill="rgb(32, 27, 29)" fill-opacity="0.76" />
  <path d="M335,366L323,386L347,370Z" fill="rgb(64, 65, 71)" fill-opacity="0.39" />
  <path d="M241,336L221,388L325,355Z" fill="rgb(216, 189, 171)" fill-opacity="0.40" />
  <path d="M259,394L223,475L314,385Z" fill="rgb(204, 174, 163)" fill-opacity="0.50" />
  <path d="M126,230L115,202L122,225Z" fill="rgb(216, 203, 195)" fill-opacity="0.68" />
  <path d="M135,81L115,78L138,86Z" fill="rgb(42, 35, 30)" fill-opacity="0.50" />
  <path d="M127,255L132,269L139,253Z" fill="rgb(225, 218, 209)" fill-opacity="0.53" />
  <path d="M320,371L329,345L297,377Z" fill="rgb(188, 148, 123)" fill-opacity="0.53" />
  <path d="M204,216L208,204L199,186Z" fill="rgb(192, 129, 114)" fill-opacity="0.54" />
  <path d="M321,380L295,415L291,410Z" fill="rgb(93, 76, 69)" fill-opacity="0.58" />
  <path d="M131,177L145,157L133,182Z" fill="rgb(174, 148, 133)" fill-opacity="0.44" />
  <path d="M229,235L243,250L216,245Z" fill="rgb(230, 190, 170)" fill-opacity="0.44" />
  <path d="M41,379L56,372L17,425Z" fill="rgb(92, 93, 98)" fill-opacity="0.42" />
  <path d="M190,37L179,31L194,60Z" fill="rgb(42, 31, 33)" fill-opacity="0.77" />
  <path d="M135,274L109,226L136,291Z" fill="rgb(43, 48, 50)" fill-opacity="0.57" />
  <path d="M273,312L272,277L247,320Z" fill="rgb(215, 187, 165)" fill-opacity="0.46" />
  <path d="M170,310L153,297L162,284Z" fill="rgb(188, 155, 133)" fill-opacity="0.65" />
  <path d="M160,181L176,180L182,183Z" fill="rgb(175, 156, 148)" fill-opacity="0.32" />
  <path d="M341,193L291,226L281,264Z" fill="rgb(39, 41, 46)" fill-opacity="0.68" />
  <path d="M79,331L78,330L87,327Z" fill="rgb(174, 172, 174)" fill-opacity="0.53" />
  <path d="M180,229L180,225L194,226Z" fill="rgb(248, 224, 207)" fill-opacity="0.46" />
  <path d="M238,177L237,170L254,183Z" fill="rgb(1, 5, 12)" fill-opacity="0.47" />
  <path d="M168,33L174,61L171,34Z" fill="rgb(84, 72, 68)" fill-opacity="0.53" />
  <path d="M306,166L313,179L294,170Z" fill="rgb(213, 164, 148)" fill-opacity="0.49" />
  <path d="M186,314L168,315L202,321Z" fill="rgb(154, 125, 105)" fill-opacity="0.46" />
  <path d="M123,61L98,40L124,42Z" fill="rgb(31, 26, 28)" fill-opacity="0.55" />
  <path d="M243,374L259,411L226,411Z" fill="rgb(204, 161, 140)" fill-opacity="0.50" />
  <path d="M250,316L242,354L210,349Z" fill="rgb(215, 183, 160)" fill-opacity="0.63" />
  <path d="M187,87L185,80L176,81Z" fill="rgb(98, 73, 68)" fill-opacity="0.50" />
  <path d="M227,316L208,306L206,325Z" fill="rgb(57, 37, 32)" fill-opacity="0.44" />
  <path d="M142,307L134,303L137,284Z" fill="rgb(226, 220, 211)" fill-opacity="0.51" />
  <path d="M104,142L112,147L115,156Z" fill="rgb(93, 65, 52)" fill-opacity="0.52" />
  <path d="M296,123L282,111L287,103Z" fill="rgb(88, 64, 53)" fill-opacity="0.58" />
  <path d="M205,302L238,305L266,288Z" fill="rgb(153, 113, 91)" fill-opacity="0.48" />
  <path d="M236,163L252,168L262,164Z" fill="rgb(54, 26, 27)" fill-opacity="0.58" />
  <path d="M77,393L81,407L67,407Z" fill="rgb(130, 131, 137)" fill-opacity="0.50" />
  <path d="M108,160L111,156L115,168Z" fill="rgb(80, 38, 15)" fill-opacity="0.38" />
  <path d="M153,161L138,164L153,164Z" fill="rgb(96, 70, 70)" fill-opacity="0.49" />
  <path d="M177,268L167,258L184,261Z" fill="rgb(15, 2, 11)" fill-opacity="0.60" />
  <path d="M238,185L232,177L240,180Z" fill="rgb(105, 82, 86)" fill-opacity="0.46" />
  <path d="M115,323L128,316L121,313Z" fill="rgb(136, 95, 70)" fill-opacity="0.48" />
  <path d="M99,147L102,146L116,158Z" fill="rgb(244, 220, 211)" fill-opacity="0.51" />
  <path d="M121,226L91,178L131,299Z" fill="rgb(38, 44, 50)" fill-opacity="0.81" />
  <path d="M224,255L241,253L246,269Z" fill="rgb(163, 115, 90)" fill-opacity="0.53" />
  <path d="M87,325L31,342L121,290Z" fill="rgb(32, 38, 44)" fill-opacity="0.97" />
  <path d="M278,160L267,166L263,144Z" fill="rgb(212, 177, 160)" fill-opacity="0.53" />
  <path d="M101,178L101,186L104,179Z" fill="rgb(233, 202, 194)" fill-opacity="0.50" />
  <path d="M263,191L253,175L254,190Z" fill="rgb(161, 118, 102)" fill-opacity="0.53" />
  <path d="M68,352L79,361L76,346Z" fill="rgb(102, 102, 103)" fill-opacity="0.42" />
  <path d="M133,58L143,83L138,65Z" fill="rgb(35, 22, 19)" fill-opacity="0.54" />
  <path d="M153,246L138,257L141,241Z" fill="rgb(197, 176, 167)" fill-opacity="0.50" />
  <path d="M130,331L146,334L144,305Z" fill="rgb(202, 184, 174)" fill-opacity="0.40" />
  <path d="M116,155L112,160L118,170Z" fill="rgb(244, 228, 215)" fill-opacity="0.48" />
  <path d="M277,90L272,84L304,92Z" fill="rgb(100, 72, 62)" fill-opacity="0.48" />
  <path d="M106,78L60,244L109,122Z" fill="rgb(31, 34, 41)" fill-opacity="0.64" />
  <path d="M112,70L116,60L128,64Z" fill="rgb(92, 79, 74)" fill-opacity="0.55" />
  <path d="M106,137L89,154L90,78Z" fill="rgb(26, 31, 39)" fill-opacity="0.76" />
  <path d="M100,184L99,164L105,199Z" fill="rgb(225, 216, 213)" fill-opacity="0.51" />
  <path d="M130,41L130,28L119,52Z" fill="rgb(69, 53, 55)" fill-opacity="0.48" />
  <path d="M224,253L222,260L209,258Z" fill="rgb(235, 183, 168)" fill-opacity="0.41" />
  <path d="M405,419L393,412L408,373Z" fill="rgb(73, 79, 83)" fill-opacity="1.00" />
  <path d="M296,172L303,172L300,186Z" fill="rgb(140, 71, 55)" fill-opacity="0.53" />
  <path d="M188,32L180,58L184,33Z" fill="rgb(107, 89, 83)" fill-opacity="0.37" />
  <path d="M257,170L258,179L264,183Z" fill="rgb(26, 10, 11)" fill-opacity="0.47" />
  <path d="M245,273L224,303L236,271Z" fill="rgb(180, 130, 102)" fill-opacity="0.44" />
  <path d="M299,-24L429,64L398,155Z" fill="rgb(18, 23, 33)" fill-opacity="0.65" />
  <path d="M66,404L65,395L80,364Z" fill="rgb(30, 30, 35)" fill-opacity="0.44" />
  <path d="M142,57L145,44L142,39Z" fill="rgb(155, 134, 120)" fill-opacity="0.47" />
  <path d="M255,59L262,48L248,48Z" fill="rgb(35, 31, 37)" fill-opacity="0.49" />
  <path d="M261,74L251,83L278,76Z" fill="rgb(94, 58, 48)" fill-opacity="0.52" />
  <path d="M156,170L175,170L137,166Z" fill="rgb(111, 91, 80)" fill-opacity="0.44" />
  <path d="M132,90L139,95L135,83Z" fill="rgb(149, 127, 115)" fill-opacity="0.56" />
  <path d="M169,35L156,53L163,29Z" fill="rgb(52, 38, 38)" fill-opacity="0.54" />
  <path d="M220,58L218,45L224,55Z" fill="rgb(79, 66, 62)" fill-opacity="0.48" />
  <path d="M245,185L273,183L239,183Z" fill="rgb(166, 124, 117)" fill-opacity="0.51" />
  <path d="M200,245L206,257L207,248Z" fill="rgb(152, 101, 80)" fill-opacity="0.44" />
  <path d="M208,158L183,131L186,149Z" fill="rgb(209, 156, 135)" fill-opacity="0.54" />
  <path d="M224,235L210,239L209,234Z" fill="rgb(52, 23, 24)" fill-opacity="0.52" />
  <path d="M270,163L285,173L279,163Z" fill="rgb(135, 107, 88)" fill-opacity="0.44" />
  <path d="M253,237L238,225L247,269Z" fill="rgb(207, 150, 125)" fill-opacity="0.42" />
  <path d="M-30,364L10,353L25,343Z" fill="rgb(20, 25, 26)" fill-opacity="0.52" />
  <path d="M130,95L122,84L128,83Z" fill="rgb(134, 122, 115)" fill-opacity="0.50" />
  <path d="M175,259L186,258L182,255Z" fill="rgb(161, 127, 116)" fill-opacity="0.45" />
  <path d="M199,191L183,186L198,210Z" fill="rgb(79, 48, 43)" fill-opacity="0.45" />
  <path d="M197,231L196,217L206,239Z" fill="rgb(117, 64, 53)" fill-opacity="0.48" />
  <path d="M191,283L200,300L172,281Z" fill="rgb(149, 99, 79)" fill-opacity="0.42" />
  <path d="M284,319L293,334L262,306Z" fill="rgb(200, 165, 141)" fill-opacity="0.56" />
  <path d="M45,349L9,381L15,361Z" fill="rgb(38, 37, 42)" fill-opacity="0.31" />
  <path d="M130,74L126,78L130,80Z" fill="rgb(169, 169, 161)" fill-opacity="0.42" />
  <path d="M152,168L138,177L152,172Z" fill="rgb(33, 15, 12)" fill-opacity="0.48" />
  <path d="M146,303L141,311L147,315Z" fill="rgb(179, 150, 130)" fill-opacity="0.58" />
  <path d="M226,84L270,68L252,65Z" fill="rgb(32, 22, 23)" fill-opacity="0.71" />
  <path d="M300,163L291,182L301,169Z" fill="rgb(173, 144, 123)" fill-opacity="0.49" />
  <path d="M170,88L177,110L170,157Z" fill="rgb(157, 97, 79)" fill-opacity="0.53" />
  <path d="M174,39L187,12L169,27Z" fill="rgb(23, 18, 23)" fill-opacity="0.58" />
  <path d="M226,299L245,299L229,287Z" fill="rgb(162, 114, 88)" fill-opacity="0.66" />
  <path d="M160,302L150,294L146,321Z" fill="rgb(134, 98, 81)" fill-opacity="0.52" />
  <path d="M179,110L200,148L194,101Z" fill="rgb(196, 141, 119)" fill-opacity="0.60" />
  <path d="M51,338L58,337L52,340Z" fill="rgb(166, 163, 165)" fill-opacity="0.52" />
  <path d="M132,238L125,248L121,220Z" fill="rgb(237, 235, 233)" fill-opacity="0.48" />
</svg>
